<?xml version="1.0" encoding="UTF-8" standalone="no"?>
<!DOCTYPE svg PUBLIC "-//W3C//DTD SVG 1.1//EN"
 "http://www.w3.org/Graphics/SVG/1.1/DTD/svg11.dtd">
<!-- Generated by graphviz version 2.40.1 (20161225.0304)
 -->
<!-- Title: state transitions Pages: 1 -->
<svg width="1474pt" height="254pt"
 viewBox="0.00 0.00 1474.00 254.00" xmlns="http://www.w3.org/2000/svg" xmlns:xlink="http://www.w3.org/1999/xlink">
<g id="graph0" class="graph" transform="scale(1 1) rotate(0) translate(4 250)">
<title>state transitions</title>
<polygon fill="#ffffff" stroke="transparent" points="-4,4 -4,-250 1470,-250 1470,4 -4,4"/>
<g id="clust1" class="cluster">
<title>cluster_feed</title>
<path fill="none" stroke="#000000" stroke-width="2" d="M20,-8C20,-8 1446,-8 1446,-8 1452,-8 1458,-14 1458,-20 1458,-20 1458,-226 1458,-226 1458,-232 1452,-238 1446,-238 1446,-238 20,-238 20,-238 14,-238 8,-232 8,-226 8,-226 8,-20 8,-20 8,-14 14,-8 20,-8"/>
<text text-anchor="start" x="721.8264" y="-219.2" font-family="Helvetica,sans-Serif" font-size="12.00" fill="#000000">feed</text>
</g>
<g id="clust2" class="cluster">
<title>cluster_feed.is_user_nta</title>
<path fill="none" stroke="#000000" stroke-width="2" d="M1376,-40C1376,-40 1438,-40 1438,-40 1444,-40 1450,-46 1450,-52 1450,-52 1450,-74 1450,-74 1450,-80 1444,-86 1438,-86 1438,-86 1376,-86 1376,-86 1370,-86 1364,-80 1364,-74 1364,-74 1364,-52 1364,-52 1364,-46 1370,-40 1376,-40"/>
<text text-anchor="start" x="1375.9914" y="-67.2" font-family="Helvetica,sans-Serif" font-size="12.00" fill="#000000">is_user_nta</text>
</g>
<g id="clust3" class="cluster">
<title>cluster_feed.universal_search</title>
<path fill="none" stroke="#000000" stroke-width="2" d="M1254,-40C1254,-40 1344,-40 1344,-40 1350,-40 1356,-46 1356,-52 1356,-52 1356,-74 1356,-74 1356,-80 1350,-86 1344,-86 1344,-86 1254,-86 1254,-86 1248,-86 1242,-80 1242,-74 1242,-74 1242,-52 1242,-52 1242,-46 1248,-40 1254,-40"/>
<text text-anchor="start" x="1253.6592" y="-67.2" font-family="Helvetica,sans-Serif" font-size="12.00" fill="#000000">universal_search</text>
</g>
<g id="clust4" class="cluster">
<title>cluster_feed.modules</title>
<path fill="none" stroke="#000000" stroke-width="2" d="M42,-16C42,-16 1222,-16 1222,-16 1228,-16 1234,-22 1234,-28 1234,-28 1234,-188 1234,-188 1234,-194 1228,-200 1222,-200 1222,-200 42,-200 42,-200 36,-200 30,-194 30,-188 30,-188 30,-28 30,-28 30,-22 36,-16 42,-16"/>
<text text-anchor="start" x="609.8296" y="-181.2" font-family="Helvetica,sans-Serif" font-size="12.00" fill="#000000">modules</text>
</g>
<g id="clust5" class="cluster">
<title>cluster_feed.modules.items</title>
<path fill="none" stroke="#000000" stroke-width="2" d="M359,-24C359,-24 1214,-24 1214,-24 1220,-24 1226,-30 1226,-36 1226,-36 1226,-150 1226,-150 1226,-156 1220,-162 1214,-162 1214,-162 359,-162 359,-162 353,-162 347,-156 347,-150 347,-150 347,-36 347,-36 347,-30 353,-24 359,-24"/>
<text text-anchor="start" x="772.1684" y="-143.2" font-family="Helvetica,sans-Serif" font-size="12.00" fill="#000000">items</text>
</g>
<g id="clust6" class="cluster">
<title>cluster_feed.modules.items.action</title>
<path fill="none" stroke="#000000" stroke-width="2" d="M1174,-40C1174,-40 1206,-40 1206,-40 1212,-40 1218,-46 1218,-52 1218,-52 1218,-74 1218,-74 1218,-80 1212,-86 1206,-86 1206,-86 1174,-86 1174,-86 1168,-86 1162,-80 1162,-74 1162,-74 1162,-52 1162,-52 1162,-46 1168,-40 1174,-40"/>
<text text-anchor="start" x="1173.995" y="-67.2" font-family="Helvetica,sans-Serif" font-size="12.00" fill="#000000">action</text>
</g>
<g id="clust7" class="cluster">
<title>cluster_feed.modules.items.credit_clarity</title>
<path fill="none" stroke="#000000" stroke-width="2" d="M683,-32C683,-32 1142,-32 1142,-32 1148,-32 1154,-38 1154,-44 1154,-44 1154,-112 1154,-112 1154,-118 1148,-124 1142,-124 1142,-124 683,-124 683,-124 677,-124 671,-118 671,-112 671,-112 671,-44 671,-44 671,-38 677,-32 683,-32"/>
<text text-anchor="start" x="879.3346" y="-105.2" font-family="Helvetica,sans-Serif" font-size="12.00" fill="#000000">credit_clarity</text>
</g>
<g id="clust8" class="cluster">
<title>cluster_feed.modules.items.credit_clarity.credit_clarity_id</title>
<path fill="none" stroke="#000000" stroke-width="2" d="M1051,-40C1051,-40 1134,-40 1134,-40 1140,-40 1146,-46 1146,-52 1146,-52 1146,-74 1146,-74 1146,-80 1140,-86 1134,-86 1134,-86 1051,-86 1051,-86 1045,-86 1039,-80 1039,-74 1039,-74 1039,-52 1039,-52 1039,-46 1045,-40 1051,-40"/>
<text text-anchor="start" x="1051.3324" y="-67.2" font-family="Helvetica,sans-Serif" font-size="12.00" fill="#000000">credit_clarity_id</text>
</g>
<g id="clust9" class="cluster">
<title>cluster_feed.modules.items.credit_clarity.offer_ari</title>
<path fill="none" stroke="#000000" stroke-width="2" d="M975,-40C975,-40 1019,-40 1019,-40 1025,-40 1031,-46 1031,-52 1031,-52 1031,-74 1031,-74 1031,-80 1025,-86 1019,-86 1019,-86 975,-86 975,-86 969,-86 963,-80 963,-74 963,-74 963,-52 963,-52 963,-46 969,-40 975,-40"/>
<text text-anchor="start" x="974.9974" y="-67.2" font-family="Helvetica,sans-Serif" font-size="12.00" fill="#000000">offer_ari</text>
</g>
<g id="clust10" class="cluster">
<title>cluster_feed.modules.items.credit_clarity.offer_text</title>
<path fill="none" stroke="#000000" stroke-width="2" d="M893,-40C893,-40 943,-40 943,-40 949,-40 955,-46 955,-52 955,-52 955,-74 955,-74 955,-80 949,-86 943,-86 943,-86 893,-86 893,-86 887,-86 881,-80 881,-74 881,-74 881,-52 881,-52 881,-46 887,-40 893,-40"/>
<text text-anchor="start" x="892.9914" y="-67.2" font-family="Helvetica,sans-Serif" font-size="12.00" fill="#000000">offer_text</text>
</g>
<g id="clust11" class="cluster">
<title>cluster_feed.modules.items.credit_clarity.prequal_text</title>
<path fill="none" stroke="#000000" stroke-width="2" d="M795,-40C795,-40 861,-40 861,-40 867,-40 873,-46 873,-52 873,-52 873,-74 873,-74 873,-80 867,-86 861,-86 861,-86 795,-86 795,-86 789,-86 783,-80 783,-74 783,-74 783,-52 783,-52 783,-46 789,-40 795,-40"/>
<text text-anchor="start" x="794.9886" y="-67.2" font-family="Helvetica,sans-Serif" font-size="12.00" fill="#000000">prequal_text</text>
</g>
<g id="clust12" class="cluster">
<title>cluster_feed.modules.items.credit_clarity.loggingData</title>
<path fill="none" stroke="#000000" stroke-width="2" d="M699,-40C699,-40 763,-40 763,-40 769,-40 775,-46 775,-52 775,-52 775,-74 775,-74 775,-80 769,-86 763,-86 763,-86 699,-86 699,-86 693,-86 687,-80 687,-74 687,-74 687,-52 687,-52 687,-46 693,-40 699,-40"/>
<text text-anchor="start" x="698.9906" y="-67.2" font-family="Helvetica,sans-Serif" font-size="12.00" fill="#000000">loggingData</text>
</g>
<g id="clust13" class="cluster">
<title>cluster_feed.modules.items.icon_url</title>
<path fill="none" stroke="#000000" stroke-width="2" d="M609,-40C609,-40 651,-40 651,-40 657,-40 663,-46 663,-52 663,-52 663,-74 663,-74 663,-80 657,-86 651,-86 651,-86 609,-86 609,-86 603,-86 597,-80 597,-74 597,-74 597,-52 597,-52 597,-46 603,-40 609,-40"/>
<text text-anchor="start" x="608.9982" y="-67.2" font-family="Helvetica,sans-Serif" font-size="12.00" fill="#000000">icon_url</text>
</g>
<g id="clust14" class="cluster">
<title>cluster_feed.modules.items.image_url</title>
<path fill="none" stroke="#000000" stroke-width="2" d="M525,-40C525,-40 577,-40 577,-40 583,-40 589,-46 589,-52 589,-52 589,-74 589,-74 589,-80 583,-86 577,-86 577,-86 525,-86 525,-86 519,-86 513,-80 513,-74 513,-74 513,-52 513,-52 513,-46 519,-40 525,-40"/>
<text text-anchor="start" x="524.6654" y="-67.2" font-family="Helvetica,sans-Serif" font-size="12.00" fill="#000000">image_url</text>
</g>
<g id="clust15" class="cluster">
<title>cluster_feed.modules.items.logging_data</title>
<path fill="none" stroke="#000000" stroke-width="2" d="M425,-40C425,-40 493,-40 493,-40 499,-40 505,-46 505,-52 505,-52 505,-74 505,-74 505,-80 499,-86 493,-86 493,-86 425,-86 425,-86 419,-86 413,-80 413,-74 413,-74 413,-52 413,-52 413,-46 419,-40 425,-40"/>
<text text-anchor="start" x="424.6512" y="-67.2" font-family="Helvetica,sans-Serif" font-size="12.00" fill="#000000">logging_data</text>
</g>
<g id="clust16" class="cluster">
<title>cluster_feed.modules.items.title</title>
<path fill="none" stroke="#000000" stroke-width="2" d="M375,-40C375,-40 393,-40 393,-40 399,-40 405,-46 405,-52 405,-52 405,-74 405,-74 405,-80 399,-86 393,-86 393,-86 375,-86 375,-86 369,-86 363,-80 363,-74 363,-74 363,-52 363,-52 363,-46 369,-40 375,-40"/>
<text text-anchor="start" x="374.667" y="-67.2" font-family="Helvetica,sans-Serif" font-size="12.00" fill="#000000">title</text>
</g>
<g id="clust17" class="cluster">
<title>cluster_feed.modules.layout</title>
<path fill="none" stroke="#000000" stroke-width="2" d="M295,-40C295,-40 327,-40 327,-40 333,-40 339,-46 339,-52 339,-52 339,-74 339,-74 339,-80 333,-86 327,-86 327,-86 295,-86 295,-86 289,-86 283,-80 283,-74 283,-74 283,-52 283,-52 283,-46 289,-40 295,-40"/>
<text text-anchor="start" x="294.995" y="-67.2" font-family="Helvetica,sans-Serif" font-size="12.00" fill="#000000">layout</text>
</g>
<g id="clust18" class="cluster">
<title>cluster_feed.modules.logging_data</title>
<path fill="none" stroke="#000000" stroke-width="2" d="M195,-40C195,-40 263,-40 263,-40 269,-40 275,-46 275,-52 275,-52 275,-74 275,-74 275,-80 269,-86 263,-86 263,-86 195,-86 195,-86 189,-86 183,-80 183,-74 183,-74 183,-52 183,-52 183,-46 189,-40 195,-40"/>
<text text-anchor="start" x="194.6512" y="-67.2" font-family="Helvetica,sans-Serif" font-size="12.00" fill="#000000">logging_data</text>
</g>
<g id="clust19" class="cluster">
<title>cluster_feed.modules.title</title>
<path fill="none" stroke="#000000" stroke-width="2" d="M145,-40C145,-40 163,-40 163,-40 169,-40 175,-46 175,-52 175,-52 175,-74 175,-74 175,-80 169,-86 163,-86 163,-86 145,-86 145,-86 139,-86 133,-80 133,-74 133,-74 133,-52 133,-52 133,-46 139,-40 145,-40"/>
<text text-anchor="start" x="144.667" y="-67.2" font-family="Helvetica,sans-Serif" font-size="12.00" fill="#000000">title</text>
</g>
<g id="clust20" class="cluster">
<title>cluster_feed.modules.module_id</title>
<path fill="none" stroke="#000000" stroke-width="2" d="M58,-40C58,-40 113,-40 113,-40 119,-40 125,-46 125,-52 125,-52 125,-74 125,-74 125,-80 119,-86 113,-86 113,-86 58,-86 58,-86 52,-86 46,-80 46,-74 46,-74 46,-52 46,-52 46,-46 52,-40 58,-40"/>
<text text-anchor="start" x="58.3274" y="-67.2" font-family="Helvetica,sans-Serif" font-size="12.00" fill="#000000">module_id</text>
</g>
<!-- feed -->
<!-- feed.is_user_nta -->
<!-- feed.universal_search -->
<!-- feed.modules -->
<!-- feed.modules.items -->
<!-- feed.modules.items.action -->
<!-- feed.modules.items.credit_clarity -->
<!-- feed.modules.items.credit_clarity.credit_clarity_id -->
<!-- feed.modules.items.credit_clarity.offer_ari -->
<!-- feed.modules.items.credit_clarity.offer_text -->
<!-- feed.modules.items.credit_clarity.prequal_text -->
<!-- feed.modules.items.credit_clarity.loggingData -->
<!-- feed.modules.items.icon_url -->
<!-- feed.modules.items.image_url -->
<!-- feed.modules.items.logging_data -->
<!-- feed.modules.items.title -->
<!-- feed.modules.layout -->
<!-- feed.modules.logging_data -->
<!-- feed.modules.title -->
<!-- feed.modules.module_id -->
</g>
</svg>
